<svg xmlns="http://www.w3.org/2000/svg" width="418.2" height="79.1" viewBox="0 0 418.2 79.1"><path fill="none" stroke="#053748" stroke-width="7" stroke-linecap="round" stroke-miterlimit="10" d="M71.7 56c-6 11.6-18.1 19.5-32 19.5-7 0-13.5-2-19-5.4-.8-.5-15.9 6.7-17 5.3-1.3-1.7 5.2-17.2 4.8-17.9-3.1-5.3-4.8-11.4-4.8-18 0-19.9 16.1-36 36-36 12 0 22.7 5.9 29.2 15M210.7 4.5v56c0 7.7 6.3 14 14 14h4"/><path fill="none" stroke="#E9604A" stroke-width="7" stroke-linecap="round" stroke-miterlimit="10" d="M414.7 4.5v70"/><path fill="none" stroke="#053748" stroke-width="7" stroke-linecap="round" stroke-linejoin="round" stroke-miterlimit="10" d="M129.7 74.5v-30c0-11.6-9.4-21-21-21s-21 9.4-21 21v30-70"/><path fill="none" stroke="#E9604A" stroke-width="7" stroke-linecap="round" stroke-linejoin="round" stroke-miterlimit="10" d="M286.7 24.5v30c0 11.6 9.4 21 21 21s21-9.4 21-21v-30 50"/><path fill="none" stroke="#053748" stroke-width="7" stroke-linecap="round" stroke-miterlimit="10" d="M148.8 33.5c3.7-6 10.3-10 17.9-10 11.6 0 21 9.4 21 21v30"/><path fill="none" stroke="#053748" stroke-width="7" stroke-linecap="round" stroke-miterlimit="10" d="M187.7 56.5c0 10.5-8.5 19-19 19h-7c-7.7 0-14-6.3-14-14s6.3-14 14-14h26v10M198.7 24.5h30"/><g fill="none" stroke="#E9604A" stroke-width="7" stroke-linecap="round" stroke-miterlimit="10"><path d="M253.7 74.5v-56c0-7.7 6.3-14 14-14h4M241.7 24.5h30"/></g><path fill="none" stroke="#E9604A" stroke-width="7" stroke-linecap="round" stroke-linejoin="round" stroke-miterlimit="10" d="M395.7 61.5c-6.4 10.8-14.8 14-24.1 14-13.8 0-25-11.6-25-26s11.2-26 25-26c12.8 0 23.4 10.1 24.8 23h-48.8"/></svg>